<?xml version="1.0" encoding="utf-8"?>
<!-- Generator: Adobe Illustrator 26.4.1, SVG Export Plug-In . SVG Version: 6.00 Build 0)  -->
<svg version="1.1" id="Capa_1" xmlns="http://www.w3.org/2000/svg" xmlns:xlink="http://www.w3.org/1999/xlink" x="0px" y="0px"
	 viewBox="0 0 20 20" style="enable-background:new 0 0 20 20;" xml:space="preserve">
<style type="text/css">
	.st0{fill:none;stroke:#252525;stroke-width:0.9469;stroke-linecap:round;stroke-linejoin:round;stroke-miterlimit:3;}
</style>
<g>
	<line class="st0" x1="8.1" y1="15.7" x2="11.9" y2="15.7"/>
	<path class="st0" d="M5.7,8.6c0-2.4,1.9-4.3,4.2-4.3c0,0,0,0,0,0c2.3,0,4.2,2,4.2,4.3v0.4c0,2.1,0.4,3.4,0.8,4
		c0.1,0.2,0.1,0.5-0.2,0.6c-0.1,0-0.1,0.1-0.2,0.1H5.3c-0.3,0-0.5-0.2-0.5-0.5c0-0.1,0-0.2,0.1-0.2c0.4-0.7,0.8-1.9,0.8-4L5.7,8.6z"
		/>
</g>
</svg>
